<?xml version="1.0" encoding="UTF-8"?>
<svg id="phoneAnswer_Layer" data-name="phoneAnswer Layer" xmlns="http://www.w3.org/2000/svg" viewBox="0 0 1024 1024">
  <defs>
    <style>
      .cls-1 {
        fill: #fefeff;
      }

      .cls-2 {
        stroke: #000;
        stroke-miterlimit: 10;
      }

      .cls-2, .cls-3 {
        fill: #fff;
      }

      .cls-4 {
        fill: #242425;
      }
    </style>
  </defs>
  <g id="phoneBaseAndShadow">
    <path id="baseShadow" class="cls-4" d="M652.81,545.69c-10.46-38.52-38.61-71.12-66.06-98.71l10.17-33.39.78-5.15.4-10.26-1.89-5.53-14.44-1.48-8.38,1.16.45,12.04,1.25,7.22h-3.12l-94.9-.74-2.17-2.17,2.53-6.86-1.98-10.28-15.52-2.17-8.48,7.04.72,11.91,1.8,4.15-1.71,1.25,10.37,33.98c-22.34,21.22-43.96,46.7-55.89,75.49-6.58,15.88-9.08,40.86-18.87,53.71-9.72,12.75-11.91,1.57-25.04,3.99-7.27,1.34-10.49,10.62-18.87,13.07-19.09,5.56-72.19,2.97-71.49-25.04.37-14.98,21.46-26.39,32.3-33.75,2.36-1.6,6.01-.63,9.07-4.72,7.97-10.63,7.59-17.15,10.89-29.03.15-.56,3.05-2.67,3.63-4.36,2.04-5.93-2.5-8.64-.73-14.52-3.35-13.1-22.59-4.22-23.95-7.98,2.63-12.46,16.29-13.65,25.04-19.23,5.7-3.64,10.17-10.43,16.69-13.07.35.28.43,1.36.42,2.98.3-1.15.59-2.26.81-3.09.74-2.77,0,0,2.66-10.53l-.69-1.59c-.06.4-.12.8-.17,1.21-4.07.89-24.9,18.87-26.26,19.73-5.04,3.18-12.31,4.48-17.42,7.99-20.81,14.25-2.07,30.58-10.53,46.09-4.43,8.12-15.85,11.43-22.86,16.33-1.43.99-2.29,4.74-2.91,5.08-.72.4-3.84-.48-5.8.73-1.67,1.02-1.38,3.63-2.91,5.08-.23.22-3.92-.61-5.44,2.54-.58,1.21,1.04,3.89-1.09,5.44-.9.66-5.16-.08-6.89,3.27-.22.42-2.6,7.66-2.91,8.71-.27.91,1.95,2.85,1.45,4.35-.07.22-3.29,1.73-3.62,2.91-1.32,4.67,4.26,6.81,4.35,7.25.05.24-2.16,3.6-2.18,4.36-.14,6.56,4.43,5.52,5.08,7.26.51,1.33-.46,5.01,0,6.53,1.38,4.49,6.22,3.91,6.54,4.35,1.06,1.51-2.17,4.1,3.99,7.63,1.33.76,2.77-.79,2.9-.73,1.5.69,1.34,5.74,4.36,7.26,2.02,1.02,5.34.44,5.8.72.53.32.2,3.83,2.18,5.09,2.14,1.35,5.51.21,6.53.72.21.1,1.65,3.08,2.91,3.63,2.93,1.28,12.2,4.39,15.24,5.08.16.04,1.95-1.64,2.9-1.45,21.77,4.29,58.96,4.71,77.67-13.07,6.07-5.76,2.36-7.86,3.99-11.97,1.42-3.58,10.96-12.32,12.7-17.06.69.42,1.93,12.02,2.54,14.15,1.02,3.57,5.6,11.95,5.81,14.52.81,9.96-7.71,15.18,4.72,25.04,34.59,27.47,212.64,36.28,240.61-6.89,6.18-9.54,1.81-15.98,2.91-26.13,2.28-21.24,6.19-27.27,0-50.09ZM297.14,470.21c3.17-10.55,20.16-13.49,27.95-18.51,6.71-4.32,15.84-14.26,23.19-19.13-.33,2.49-.73,5.01-1.78,6.43-.81,1.1-19.52,14.56-22.14,16.33-5.75,3.88-16.95,6.15-20.68,12.7-6.79,11.91,6.13,18.31,15.32,11.62-2.25-.46-11.61,1.7-12.06-1.82,4.81-1.31,17.05-2.9,18.51,3.99,3.04,14.26-26.12,12.88-27.38,1.75,7.51,4.09,21.84,6.59,27.38-1.75-9.75,4.09-32.92,3.75-28.31-11.61ZM532.68,444.44c-19.5,1.2-53.83,2.17-55.89-23.95l96.9,1.09c-3.97,19.26-24.44,21.84-41.01,22.86Z"/>
    <g id="phoneBase">
      <path id="bottomPhone" class="cls-3" d="M649.54,603.11c6.16,12.88-6.67,23.76-16.69,29.76-40.52,24.24-125.77,17.69-171.3,9.44-15.65-2.84-61.63-8.95-56.25-31.57,1.62-6.81,6.93,1.31,10.52,3.27,37.53,20.42,136.74,25.05,178.56,16.69,20.36-4.07,41.02-11.84,55.16-27.58Z"/>
      <path class="cls-3" d="M348.28,432.28c-.33,2.49-.73,5.01-1.78,6.43-.81,1.1-19.52,14.56-22.14,16.33-5.75,3.88-16.95,6.15-20.68,12.7-6.79,11.91,6.13,18.31,15.32,11.62-2.25-.46-11.61,1.7-12.06-1.82,4.81-1.31,17.05-2.9,18.51,3.99-9.75,4.09-32.92,3.75-28.31-11.61,3.17-10.55,20.16-13.49,27.95-18.51,6.71-4.32,15.84-14.26,23.19-19.13Z"/>
      <path class="cls-3" d="M298.07,483.28c7.51,4.09,21.84,6.59,27.38-1.75,3.04,14.26-26.12,12.88-27.38,1.75Z"/>
      <path id="topHandleRest" class="cls-2" d="M524.7,405.69c16.07-.17,34.22,1.22,49.72,3.99.91,7.57-1.08,7.49-7.62,8.35-13.59,1.77-39.75.91-54.44.73-5.01-.06-33.25-.42-35.57-1.45-1.68-.75-1.3-7.58-.73-7.98,1.99-1.41,43.27-3.57,48.63-3.63Z"/>
      <path class="cls-1" d="M252.51,541.42c3.76-.36,17.39,12.8,22.14,14.88-.35,3.46-1.26,4.2-4.72,3.99-1.12-.07-20.81-4.51-21.78-5.08-7.9-4.65,5.36-7.31,9.8-4.72l-10.16-3.63c-1.03-2.25,2.79-5.26,4.72-5.44Z"/>
      <path class="cls-1" d="M289.53,511.66c4.68,10.82,11.73,14.08,23.23,13.79-4.6,19.19-37.63-.67-23.23-13.79Z"/>
      <path class="cls-1" d="M265.57,527.63c2.26-.28,18.51,17.17,18.51,18.51.02,11.17-22.15-10.53-21.78-15.24.63-1.09,1.98-3.11,3.27-3.27Z"/>
      <path class="cls-1" d="M325.09,489.88c2.26.41,2.13,4.95,1.09,6.9-3.87,7.25-29.82,4.7-26.49-6.17,5.89,8.8,24.08-.97,25.4-.73Z"/>
      <path class="cls-1" d="M266.3,574.81c19.44.57-9.42,13.21-13.07,12.34-2.2-.52-4.07-5.39-3.27-7.62.97-2.68,13.59-4.8,16.33-4.72Z"/>
      <path class="cls-1" d="M247.43,557.39c3.6-.58,26.33,3.12,25.04,8.35-.91,3.69-9.62-.14-11.98-.36-3.92-.37-18.9.76-17.06-5.44.25-.84,3.27-2.42,3.99-2.54Z"/>
      <path class="cls-1" d="M249.6,566.1c3.72-.92,19.72,1.91,22.14,6.17-.34,1.18-22.98,3.79-24.32,3.27-3.8-1.48-1.46-8.53,2.18-9.44Z"/>
      <path class="cls-1" d="M293.88,508.03c4.41,9.78,15.51,9.71,24.68,7.98,3.11,7.3-11.09,8.28-15.97,7.26-4.62-.96-13.11-9.87-8.71-15.24Z"/>
      <path class="cls-1" d="M282.27,516.74c1.42.12,3.05,8.16,4.72,10.52,3.36,4.74,18.74,8.27,11.25,11.98-6.85,3.39-27.87-16.92-15.97-22.5Z"/>
      <path class="cls-1" d="M297.51,502.22c1.32,2.18,4.95,5.14,7.26,5.81,4.89,1.42,18.32-1.47,17.06,3.27-2.03,7.59-33.51,4.8-24.32-9.07Z"/>
      <path class="cls-1" d="M274.28,521.09c3.03-.37,3.47,6.4,5.44,9.07,2.16,2.93,16.31,11.97,9.07,14.15-3.72,1.12-18.64-14.14-17.78-19.23.1-.57,2.82-3.94,3.27-3.99Z"/>
      <path class="cls-1" d="M257.59,534.16c.69-.23,2.04.16,2.9,0,.46,3.72,22.85,17.65,15.97,20.32-1.35.52-23.41-13.42-20.69-18.51.58-.37,1.36-1.66,1.81-1.81Z"/>
      <path class="cls-1" d="M273.56,581.34c14.6-.71-11.46,18.96-16.33,11.25-2.57-4.06,14.42-11.16,16.33-11.25Z"/>
      <path class="cls-1" d="M280.82,586.42c.34.06,1.28,1.48,1.81,1.81,2.04,7.34-20.23,20.8-17.42,8.71.21-.92,14.68-10.69,15.61-10.52Z"/>
      <path class="cls-1" d="M285.17,590.77c1.6-.44,2.35.94,3.27,1.81,1.8,5.58-10.7,20.85-13.79,13.07-1.05-2.64,9.61-14.63,10.52-14.88Z"/>
      <path class="cls-1" d="M298.96,496.42c1.74,1.68,5.04,5.12,7.26,5.81,4.47,1.39,17.89-1.67,17.06,2.54-6.75,5.27-26.61,3.5-24.32-8.35Z"/>
      <path class="cls-1" d="M355.58,589.32c8.13-2.55,18.36,15.35,12.34,19.6-4.44,3.13-3.01-5.81-3.99-8.35-2-5.15-5.89-6.92-8.35-11.25Z"/>
      <path class="cls-1" d="M291.7,592.95c6.65-2.1-2.69,28.47-9.07,15.61,3.22-1.28,8.21-15.33,9.07-15.61Z"/>
      <path class="cls-1" d="M325.09,598.03c8.15-.98,7.36,19.11,3.63,20.32-5.56,1.81-1.05-16.14-3.63-20.32Z"/>
      <path class="cls-1" d="M352.67,591.5c5.62-1.28,15.81,17.61,7.26,21.05-1.19-.27-1.57-9.46-2.54-11.98-.54-1.39-7.84-8.36-4.72-9.07Z"/>
      <path class="cls-1" d="M296.78,595.13c7.54.74.11,21.12-5.08,18.87-2.95-1.28,5.55-15.32,5.08-18.87Z"/>
      <path class="cls-1" d="M319.28,598.03c6.92.12,6.03,19.12,2.9,20.32-5.89,2.27-2.54-4.08-2.54-5.44,0-4.98.05-9.94-.36-14.88Z"/>
      <path class="cls-1" d="M308.4,597.31c4.87-4.06,4.48,23.26-3.63,19.6-2.81-1.27,1.4-6.44,1.81-8.35.38-1.73,1.38-10.89,1.81-11.25Z"/>
      <path class="cls-1" d="M337.43,595.86c6.72,1.34,8.91,19.54,4.36,21.05-5.48,1.81-1.48-4.98-1.81-8.35-.2-1.99-4.45-12.43-2.54-12.7Z"/>
      <path class="cls-1" d="M363.56,587.15c8.09-.93,16.65,18.43,9.44,18.87-3.21.2-1.85-5.92-2.54-7.62-1.46-3.61-4.5-6.77-7.26-9.44l.36-1.81Z"/>
      <path class="cls-1" d="M314.2,597.31c5.85,2.19,4.83,21.13-.73,21.05-4.46-.07-.06-8.58.36-11.25.22-1.42-.77-9.8.36-9.8Z"/>
      <path class="cls-1" d="M346.87,593.68c8.4-1.15,13.46,21.26,7.26,21.05-2.33-.08-2.12-10.59-3.27-14.15-.34-1.04-5.11-6.23-3.99-6.9Z"/>
      <path class="cls-1" d="M342.51,595.86c5-3.1,12.09,18.06,5.81,20.32-4.4.5-1.98-8.78-2.54-11.98-.19-1.08-4.08-7.84-3.27-8.35Z"/>
      <path class="cls-1" d="M331.62,597.31c6.54.5,7.87,18.82,3.63,20.32-5.01,1.77-1.49-6.56-1.81-9.8-.11-1.11-3.14-10.25-1.81-10.52Z"/>
      <path class="cls-1" d="M302.59,596.58c6.85-3.15.82,20.05-3.63,19.6-4.1-.42,1.18-7.71,1.81-9.8.59-1.95.52-9.2,1.81-9.8Z"/>
      <path class="cls-1" d="M367.92,584.97c7.71-1.72,17.59,18.45,10.16,17.42-.99-.14-4.09-16.13-10.89-15.97l.73-1.45Z"/>
      <path class="cls-1" d="M396.22,564.64c2.98,3.68-12.31,25.35-13.79,25.4-7.58.27,6.36-11.22,6.9-11.98,2.76-3.88,4.2-9.47,6.9-13.43Z"/>
      <path class="cls-1" d="M364.29,582.06c7.65-1.29,16.2,2.16,17.06,10.52-2.44-1.03-3.4-4.72-5.44-6.17-9.98-7.09-14.27,1.5-17.42.73-3.56-.87,5.2-4.98,5.81-5.08Z"/>
      <g>
        <path class="cls-1" d="M465.9,394.8c2.22.03,4.21-.36,6.17,1.09,1.4,17.36-1.04,38.79,18.51,46.82,14.54,5.97,59.47,5.12,73.31-2.9,18.82-10.92,9.22-38.79,13.43-43.91,1.7-2.07,15.84-.76,16.69,1.45,1.58,18.42-2.09,34.45-10.16,50.81,23.72,21.71,45.7,47.24,58.79,76.94,50.19,113.86-71.99,112.32-148.43,104.88-26.1-2.54-81.88-7.56-91.82-35.93-17.84-50.9,28.02-114.8,63.87-147.35-9.21-14.53-11.78-32.35-10.89-49.36.57-1.19,9.25-2.56,10.52-2.54Z"/>
        <path class="cls-4" d="M569.7,591.5c1.6.84-4.06,4.17-4.36,4.36-23.05,14.69-59.37,15.3-83.11,1.81.76-1.29,2.07-.64,3.27-.36,7.5,1.75,15.44,6.25,23.95,7.26,20.54,2.43,42.57-2.42,60.24-13.07Z"/>
        <path class="cls-4" d="M639.38,542.14c7.86,21.89,6.49,49.16-10.89,66.05,15.36-19.95,15.33-42.2,10.89-66.05Z"/>
        <path class="cls-4" d="M407.11,567.55c1.67,11.79,3.57,22.78,11.25,32.3,8.41,10.41,16.64,11.22,28.67,14.88-25.27.34-41.95-23.25-39.92-47.18Z"/>
        <path class="cls-4" d="M424.53,597.31c8.59,7.35,18.19,10.01,28.67,13.43-9.94-.66-23.26-4.55-28.67-13.43Z"/>
        <g>
          <path class="cls-4" d="M523.97,459.4c45.37-.21,82.99,34.72,77.3,81.66-.54,4.45-6.89,17.25-6.53,18.15.5,1.25,8.49,1.98,7.98,7.26-.14,1.44-7.12,9.28-8.35,9.8-5.56,2.34-8.15-3.85-10.16-3.63-1.07.12-12.82,12.36-15.97,14.52-49.64,34.01-129.89,3.73-124.48-61.33,3.26-39.13,43.19-66.24,80.21-66.41Z"/>
          <path class="cls-1" d="M519.62,461.58c52.17-3.3,97.37,45.66,72.58,95.81-9.17-1.97-14.05-14.5-23.95-12.34-13.79,3,10.02,23.09,14.15,26.49-31.79,38.44-97.35,37.5-125.57-4.36-32.09-47.59,11.19-102.35,62.79-105.61Z"/>
          <path class="cls-1" d="M571.88,547.22c9.72,5.55,17.77,13.39,27.94,17.78-.23,1.56-2.29,4.68-3.99,4.72-2.97.06-27.71-20.33-23.95-22.5Z"/>
          <path class="cls-1" d="M567.52,547.95l26.49,24.32-2.54,1.81c-.55.02-8.36-4.99-9.44-5.81-1.97-1.5-20.14-18.84-14.52-20.32Z"/>
          <g>
            <path class="cls-4" d="M570.42,498.59c18.01-2.85,16.63,21.31,2.18,21.78-12.71.41-15.91-19.6-2.18-21.78Z"/>
            <path class="cls-1" d="M573.33,500.04c8.19-.09,11.28,11.28,5.08,15.97-13.59,10.27-22.66-15.78-5.08-15.97Z"/>
          </g>
          <g>
            <path class="cls-4" d="M528.33,571.18c18.02-2.96,16.89,20.89,2.9,21.78-13.3.84-15.95-19.63-2.9-21.78Z"/>
            <path class="cls-1" d="M531.23,572.63c9.42-.31,11.38,12.79,4.36,16.69-14.24,7.92-20.19-16.17-4.36-16.69Z"/>
          </g>
          <g>
            <path class="cls-4" d="M522.52,466.66c16.59-2.61,16.89,20.34,2.9,21.78-13.64,1.4-16.72-19.6-2.9-21.78Z"/>
            <path class="cls-1" d="M521.79,468.83c14.93-3.23,14.69,15.97,4.36,17.42-12.38,1.73-14.12-15.31-4.36-17.42Z"/>
          </g>
          <g>
            <path class="cls-4" d="M471.71,496.42c14.83-.65,13.87,18.98,2.9,21.05-16.78,3.17-18.08-20.39-2.9-21.05Z"/>
            <path class="cls-1" d="M469.53,498.59c14.36-2.92,14.78,17.16,2.18,17.42-10.66.22-11.47-15.53-2.18-17.42Z"/>
          </g>
          <g>
            <path class="cls-4" d="M551.55,476.82c15.63-1.66,15.64,19,3.63,21.05-16.08,2.74-17.43-19.58-3.63-21.05Z"/>
            <path class="cls-1" d="M550.83,479c14.47-2.82,13.79,16.46,2.9,17.42-11.17.99-13.33-15.39-2.9-17.42Z"/>
          </g>
          <g>
            <path class="cls-4" d="M491.31,476.09c18.66-3.42,16.9,21.98,1.45,21.05-11.99-.72-13.07-18.92-1.45-21.05Z"/>
            <path class="cls-1" d="M492.76,477.54c12.62-1.61,13.24,15.59,2.9,17.42-12.44,2.2-14.28-15.97-2.9-17.42Z"/>
          </g>
          <g>
            <path class="cls-4" d="M475.34,550.85c15.97-1.8,16.16,19.47,2.9,21.05-15.05,1.79-16.1-19.56-2.9-21.05Z"/>
            <path class="cls-1" d="M473.89,553.03c13.74-3.38,15.83,14.52,5.08,16.69-13.3,2.69-13.93-14.52-5.08-16.69Z"/>
          </g>
          <g>
            <path class="cls-4" d="M498.57,568.27c16.61-2.44,16.39,19.46,3.63,21.05-15.44,1.92-16.33-19.18-3.63-21.05Z"/>
            <path class="cls-1" d="M500.74,569.72c8.51-.2,12.44,11.53,5.08,15.97-14.73,8.89-20.04-15.62-5.08-15.97Z"/>
          </g>
          <g>
            <path class="cls-4" d="M462.27,525.45c21.06-4.61,16.95,27.08-2.18,19.6-8.3-3.25-6.17-17.77,2.18-19.6Z"/>
            <path class="cls-1" d="M464.45,526.9c12.78-1.63,13.06,16.25,2.18,17.42-12.54,1.35-12.93-16.05-2.18-17.42Z"/>
          </g>
          <g>
            <path class="cls-4" d="M516.71,495.69c51.33-4.42,59.84,71.02,5.81,68.95-49.43-1.89-47.4-65.37-5.81-68.95Z"/>
            <path class="cls-1" d="M520.34,497.87c41.26-1.01,51.86,58.51,10.16,63.87-54.56,7.02-55.74-62.76-10.16-63.87Z"/>
            <path class="cls-4" d="M520.34,501.5c39.66-2.26,50.68,54.54,7.98,58.07-48.33,3.99-49.83-55.69-7.98-58.07Z"/>
            <path class="cls-1" d="M515.99,503.67c39.71-5.42,54.15,47.36,14.52,53.71-45.85,7.35-50.68-48.77-14.52-53.71Z"/>
          </g>
        </g>
      </g>
    </g>
  </g>
  <g id="handleAndShadow">
    <path id="handleShadow" class="cls-4" d="M354.28,444.75c6.28-1.95,12.44-4.25,18.68-6.34,5.74-1.92,11.34-3.32,16.18-7.25,7.02-5.7,12.04-17.38,8.7-26.32-2.15-5.77-4.74-11.5-6.97-17.28l-6.6-12.26-11.31-13.87s-10.34-9.16-10.34-9.16c-10.71-5.88-18.8-15.18-32.26-11.22-7.36,2.17-13.55,7.97-16.19,15.17-.74,2.01-1.25,4.17-2.64,5.8-3.24,3.79-7.85,2.85-11.67.54-1.99-1.2-3.29-2.83-5.07-4.24-1.15-.92-1.97-2.32-2.96-3.42-1.12-1.24-2.34-2.4-3.71-3.37-2.17-1.53-2.77-4.89-3.8-7.25-3.62-8.25-5.74-17.07-9.43-25.29-4.44-9.91-8.89-19.83-13.33-29.74-5.01-11.17-10.01-22.34-15.02-33.51-5.33-11.88-11.31-24.2-13.64-37.03l.86-21.11,13.15,5.16c5.27-.76,10.53-1.51,15.8-2.27,1.39-.2,3.51-.05,4.75-.61,1.83-.82,3.32-3.74,4.42-5.34,2.77-4.01,5.14-8.3,7.07-12.79,1.39-3.25,2.76-6.72,3.56-10.17.74-3.2-.09-6.46-.31-9.69-.24-3.47-.57-6.93-1.06-10.37-.97-6.85-2.51-13.65-4.96-20.13-4.6-12.16-11.48-23.68-21-32.64-10.89-10.25-57.59,13.82-64.79,23.31-3.89,5.13-5.68,12.05-8.06,18.1l-7.18,15.35v28.68s.64,22.49.64,22.49l5.04,27.98s20.73,58.19,20.73,58.19l.13.27c4.59,9.31,9.18,18.61,13.77,27.92,5.5,11.14,10.99,22.29,16.49,33.43,4.11,8.33,9.53,15.94,14.91,23.53,8.03,11.35,16.59,22.33,25.63,32.9,2.22,2.6,4.77,5.06,6.81,7.8,1.23,1.64,1.96,2.9,3.69,4.11,3.05,2.13,6.12,4.22,9.19,6.33,4.84,3.33,9.67,6.66,14.51,10,5.04,1.32,10.07,2.64,15.11,3.96,3.32.87,6.64,1.78,9.97,2.61,3.92.98,7.83-.04,11.98.26,3.57.26,7.18-.17,10.59-1.23Z"/>
    <g id="handleGroup">
      <g>
        <path class="cls-1" d="M235.33,246.63c8.75,31.79,23.35,61.22,40.78,89.1"/>
        <path class="cls-1" d="M289.38,355.99c3.8,2.12,8.23,15.44,18.12,16.05,9.8.6,5.19-10.68,10.18-12.64,1.8-.71,14.03,5.15,16.18,6.57,11.51,7.62,44.52,46.04,43.11,59.3-1.13,10.64-27.55,15.25-36.42,15.47-53.98,1.35-105.79-81.23-125.81-124.02-18.4-39.32-44.01-120.18-33.05-162.89,5.59-21.78,21.15-40.23,41.8-49.07,19,14.75,30.55,53.17,27.41,76.46-3.65,27.09-12.08,10.97-18.77,12.18-12.94,2.36-3.06,29.39-3.82,30.89"/>
        <g>
          <path class="cls-4" d="M226.64,320.05c-11.94-24.52-23.75-57.77-30.56-84.2-.92-3.57-9.86-49.05-6.26-49.42,6.84,57.9,27.24,120.41,58.96,169.79,11.89,18.51,27.89,39.33,46.99,50.34-10.72-1.53-20.32-13.07-27.21-21.07-15.54-18.05-31.48-43.99-41.92-65.43Z"/>
          <path class="cls-4" d="M254,308.33c-1.46-2.59-17.62-36.27-14.15-37.03l19.76,44.04c-2.35-1.35-4.34-4.77-5.61-7.01Z"/>
          <path class="cls-4" d="M199.24,134.63c1.55-8.65,13.95-15.97,22.36-17.42l-22.36,17.42Z"/>
          <path class="cls-4" d="M339.38,432.09l27.91-8.78c-7.61,5.33-18.33,11.5-27.91,8.78Z"/>
          <path class="cls-4" d="M216.4,220.96c-3.6-7.61-3.81-17.19,2.58-23.13-4.12,7.69-3.42,14.74-2.58,23.13Z"/>
          <path class="cls-4" d="M284.68,370.12c-.48-.82-.75-1.8-1.21-2.64,4.84,4.28,9.73,7.73,16.37,10.47-4.99.34-12.74-3.71-15.16-7.83Z"/>
          <path class="cls-4" d="M221.33,219.51c-2.11-2.81-2.69-14.75-.83-18.38-.9,4.84,2.61,15.03,2.45,18.44-.04.79-1.49.12-1.62-.06Z"/>
          <path class="cls-4" d="M287.79,364.71c-.27-.71-.36-2.11.72-1.92l12.41,12.28c-3.7-1.01-11.85-7-13.12-10.36Z"/>
        </g>
      </g>
      <g>
        <path class="cls-1" d="M248.06,197.69c14.06-31.09-1.96-68.51-20.13-94.56,36.69-15.31,54.17,61.06,42.15,82.49-4.35,7.75-12.82,14.31-22.01,12.07Z"/>
        <path class="cls-4" d="M262.37,178.37l2.64-24.76c1.99,7.11,1.41,18.9-2.64,24.76Z"/>
        <path class="cls-4" d="M267.48,180.82l2.34-25.42c.7,8.21,1.01,17.81-2.34,25.42Z"/>
      </g>
      <g>
        <path class="cls-1" d="M319.54,357.35c-1.98-3.08,10.84-8.93,12.83-9.46,26.12-7.01,83.44,62.19,46.11,80.67.4-16.37-15.38-36.57-26.26-48.65-8.58-9.52-20.02-19.19-32.68-22.56Z"/>
        <path class="cls-4" d="M385.94,409.98c-.51-9.96-4.53-17.24-9.68-25.5,6.35,5.68,12.67,16.76,9.68,25.5Z"/>
      </g>
    </g>
  </g>
</svg>