<?xml version="1.0" encoding="UTF-8"?>
<svg id="phoneRing_Layer" data-name="phoneRing Layer" xmlns="http://www.w3.org/2000/svg" viewBox="0 0 1024 1024">
  <defs>
    <style>
      .cls-1 {
        fill: #fefeff;
      }

      .cls-2 {
        stroke: #000;
        stroke-miterlimit: 10;
      }

      .cls-2, .cls-3 {
        fill: #fff;
      }

      .cls-4 {
        fill: #242425;
      }

      /* Phone ringing animations */
      #handleGroup {
        animation: handleWiggle 2s ease-in-out infinite;
        transform-origin: 512px 400px;
      }

      #rightRingTicks {
        animation: rightTickPulse 2s ease-in-out infinite;
        transform-origin: center;
      }

      #leftRingTicks {
        animation: leftTickPulse 2s ease-in-out infinite;
        transform-origin: center;
      }

      @keyframes handleWiggle {
        0% { transform: rotate(0deg); }
        5% { transform: rotate(2deg); }
        10% { transform: rotate(-2deg); }
        15% { transform: rotate(2.5deg); }
        20% { transform: rotate(-2.5deg); }
        25% { transform: rotate(2deg); }
        30% { transform: rotate(-2deg); }
        35% { transform: rotate(1.5deg); }
        40% { transform: rotate(-1.5deg); }
        45% { transform: rotate(1deg); }
        50% { transform: rotate(-1deg); }
        55% { transform: rotate(0.8deg); }
        60% { transform: rotate(-0.8deg); }
        65% { transform: rotate(0.5deg); }
        70% { transform: rotate(-0.5deg); }
        75% { transform: rotate(0.3deg); }
        80% { transform: rotate(-0.3deg); }
        85% { transform: rotate(0.1deg); }
        90% { transform: rotate(-0.1deg); }
        95% { transform: rotate(0deg); }
        100% { transform: rotate(0deg); }
      }

      @keyframes rightTickPulse {
        0% { opacity: 0.3; transform: scale(1); }
        15% { opacity: 1; transform: scale(1.2); }
        30% { opacity: 0.3; transform: scale(1); }
        45% { opacity: 1; transform: scale(1.15); }
        60% { opacity: 0.3; transform: scale(1); }
        75% { opacity: 0.8; transform: scale(1.1); }
        90% { opacity: 0.3; transform: scale(1); }
        100% { opacity: 0.3; transform: scale(1); }
      }

      @keyframes leftTickPulse {
        0% { opacity: 0.3; transform: scale(1); }
        20% { opacity: 0.8; transform: scale(1.15); }
        35% { opacity: 0.3; transform: scale(1); }
        50% { opacity: 1; transform: scale(1.2); }
        65% { opacity: 0.3; transform: scale(1); }
        80% { opacity: 0.9; transform: scale(1.1); }
        95% { opacity: 0.3; transform: scale(1); }
        100% { opacity: 0.3; transform: scale(1); }
      }
    </style>
  </defs>
  <g id="phoneBaseCoilAndShadow">
    <path class="cls-4" d="M505.19,360.72c-51.98,1.8-137.59,15.59-160.04,69.32-.47,1.14-.72,2.8-.96,4.58-4.07.89-24.9,18.87-26.26,19.73-5.04,3.18-12.31,4.48-17.42,7.99-20.81,14.25-2.07,30.58-10.53,46.09-4.43,8.12-15.85,11.43-22.86,16.33-1.43.99-2.29,4.74-2.91,5.08-.72.4-3.84-.48-5.8.73-1.67,1.02-1.38,3.63-2.91,5.08-.23.22-3.92-.61-5.44,2.54-.58,1.21,1.04,3.89-1.09,5.44-.9.66-5.16-.08-6.89,3.27-.22.42-2.6,7.66-2.91,8.71-.27.91,1.95,2.85,1.45,4.35-.07.22-3.29,1.73-3.62,2.91-1.32,4.67,4.26,6.81,4.35,7.25.05.24-2.16,3.6-2.18,4.36-.14,6.56,4.43,5.52,5.08,7.26.51,1.33-.46,5.01,0,6.53,1.38,4.49,6.22,3.91,6.54,4.35,1.06,1.51-2.17,4.1,3.99,7.63,1.33.76,2.77-.79,2.9-.73,1.5.69,1.34,5.74,4.36,7.26,2.02,1.02,5.34.44,5.8.72.53.32.2,3.83,2.18,5.09,2.14,1.35,5.51.21,6.53.72.21.1,1.65,3.08,2.91,3.63,2.93,1.28,12.2,4.39,15.24,5.08.16.04,1.95-1.64,2.9-1.45,21.77,4.29,58.96,4.71,77.67-13.07,6.07-5.76,2.36-7.86,3.99-11.97,1.42-3.58,10.96-12.32,12.7-17.06.69.42,1.93,12.02,2.54,14.15,1.02,3.57,5.6,11.95,5.81,14.52.81,9.96-7.71,15.18,4.72,25.04,34.59,27.47,212.64,36.28,240.61-6.89,6.18-9.54,1.81-15.98,2.91-26.13,2.28-21.24,6.19-27.27,0-50.09-10.46-38.52-38.61-71.12-66.06-98.71l10.17-33.39c5.87-.66,25.75,4.49,23.95,12.34-.17.75-8.72,8.2-10.16,10.89-24.56,45.72,94.07,73.09,100.16,24.68,11.52-91.51-139.6-106.3-201.42-104.16ZM292.88,473.59c3.17-10.55,20.16-13.49,27.95-18.51,6.71-4.32,15.84-14.26,23.19-19.13-.33,2.49-.73,5.01-1.78,6.43-.81,1.1-19.52,14.56-22.14,16.33-5.75,3.88-16.95,6.15-20.68,12.7-6.79,11.91,6.13,18.31,15.32,11.62-2.25-.46-11.61,1.7-12.06-1.82,4.81-1.31,17.05-2.9,18.51,3.99,3.04,14.26-26.12,12.88-27.38,1.75,7.51,4.09,21.84,6.59,27.38-1.75-9.75,4.09-32.92,3.75-28.31-11.61ZM402.48,526.57c-6.58,15.88-9.08,40.86-18.87,53.71-9.72,12.75-11.91,1.57-25.04,3.99-7.27,1.34-10.49,10.62-18.87,13.07-19.09,5.56-72.19,2.97-71.5-25.04.37-14.98,21.46-26.39,32.3-33.75,2.36-1.6,6.01-.63,9.07-4.72,7.97-10.63,7.59-17.15,10.89-29.03.15-.56,3.05-2.67,3.63-4.36,2.04-5.93-2.5-8.64-.73-14.52-3.35-13.1-22.59-4.22-23.95-7.98,2.63-12.46,16.29-13.65,25.04-19.23,5.7-3.64,10.17-10.43,16.69-13.07,2.04,1.62-4.91,29.64,12.34,39.92,24.49,14.59,103.6-7.52,83.83-46.09-1.75-3.42-8.54-8.06-9.44-10.16-3.33-7.81,14.8-11.58,19.96-12.7l10.52,34.48c-22.34,21.22-43.96,46.7-55.89,75.49ZM528.42,447.82c-19.5,1.2-53.83,2.17-55.89-23.95l96.9,1.09c-3.97,19.26-24.44,21.84-41.01,22.86Z"/>
    <path id="bottomPhone" class="cls-3" d="M645.28,606.78c6.16,12.88-6.67,23.76-16.69,29.76-40.52,24.24-125.77,17.69-171.3,9.44-15.65-2.84-61.63-8.95-56.25-31.57,1.62-6.81,6.93,1.31,10.52,3.27,37.53,20.42,136.74,25.05,178.56,16.69,20.36-4.07,41.02-11.84,55.16-27.58Z"/>
    <path class="cls-3" d="M344.02,435.95c-.33,2.49-.73,5.01-1.78,6.43-.81,1.1-19.52,14.56-22.14,16.33-5.75,3.88-16.95,6.15-20.68,12.7-6.79,11.91,6.13,18.31,15.32,11.62-2.25-.46-11.61,1.7-12.06-1.82,4.81-1.31,17.05-2.9,18.51,3.99-9.75,4.09-32.92,3.75-28.31-11.61,3.17-10.55,20.16-13.49,27.95-18.51,6.71-4.32,15.84-14.26,23.19-19.13Z"/>
    <path class="cls-3" d="M293.81,486.95c7.51,4.09,21.84,6.59,27.38-1.75,3.04,14.26-26.12,12.88-27.38,1.75Z"/>
    <path id="topHandleRest" class="cls-2" d="M520.43,409.35c16.07-.17,34.22,1.22,49.72,3.99.91,7.57-1.08,7.49-7.62,8.35-13.59,1.77-39.75.91-54.44.73-5.01-.06-33.25-.42-35.57-1.45-1.68-.75-1.3-7.58-.73-7.98,1.99-1.41,43.27-3.57,48.63-3.63Z"/>
    <path class="cls-1" d="M248.24,545.08c3.76-.36,17.39,12.8,22.14,14.88-.35,3.46-1.26,4.2-4.72,3.99-1.12-.07-20.81-4.51-21.78-5.08-7.9-4.65,5.36-7.31,9.8-4.72l-10.16-3.63c-1.03-2.25,2.79-5.26,4.72-5.44Z"/>
    <path class="cls-1" d="M285.26,515.32c4.68,10.82,11.73,14.08,23.23,13.79-4.6,19.19-37.63-.67-23.23-13.79Z"/>
    <path class="cls-1" d="M261.31,531.29c2.26-.28,18.51,17.17,18.51,18.51.02,11.17-22.15-10.53-21.78-15.24.63-1.09,1.98-3.11,3.27-3.27Z"/>
    <path class="cls-1" d="M320.83,493.54c2.26.41,2.13,4.95,1.09,6.9-3.87,7.25-29.82,4.7-26.49-6.17,5.89,8.8,24.08-.97,25.4-.73Z"/>
    <path class="cls-1" d="M262.03,578.47c19.44.57-9.42,13.21-13.07,12.34-2.2-.52-4.07-5.39-3.27-7.62.97-2.68,13.59-4.8,16.33-4.72Z"/>
    <path class="cls-1" d="M243.16,561.05c3.6-.58,26.33,3.12,25.04,8.35-.91,3.69-9.62-.14-11.98-.36-3.92-.37-18.9.76-17.06-5.44.25-.84,3.27-2.42,3.99-2.54Z"/>
    <path class="cls-1" d="M245.34,569.76c3.72-.92,19.72,1.91,22.14,6.17-.34,1.18-22.98,3.79-24.32,3.27-3.8-1.48-1.46-8.53,2.18-9.44Z"/>
    <path class="cls-1" d="M289.62,511.69c4.41,9.78,15.51,9.71,24.68,7.98,3.11,7.3-11.09,8.28-15.97,7.26-4.62-.96-13.11-9.87-8.71-15.24Z"/>
    <path class="cls-1" d="M278,520.4c1.42.12,3.05,8.16,4.72,10.52,3.36,4.74,18.74,8.27,11.25,11.98-6.85,3.39-27.87-16.92-15.97-22.5Z"/>
    <path class="cls-1" d="M293.25,505.88c1.32,2.18,4.95,5.14,7.26,5.81,4.89,1.42,18.32-1.47,17.06,3.27-2.03,7.59-33.51,4.8-24.32-9.07Z"/>
    <path class="cls-1" d="M270.02,524.76c3.03-.37,3.47,6.4,5.44,9.07,2.16,2.93,16.31,11.97,9.07,14.15-3.72,1.12-18.64-14.14-17.78-19.23.1-.57,2.82-3.94,3.27-3.99Z"/>
    <path class="cls-1" d="M253.32,537.82c.69-.23,2.04.16,2.9,0,.46,3.72,22.85,17.65,15.97,20.32-1.35.52-23.41-13.42-20.69-18.51.58-.37,1.36-1.66,1.81-1.81Z"/>
    <path class="cls-1" d="M269.29,585c14.6-.71-11.46,18.96-16.33,11.25-2.57-4.06,14.42-11.16,16.33-11.25Z"/>
    <path class="cls-1" d="M276.55,590.08c.34.06,1.28,1.48,1.81,1.81,2.04,7.34-20.23,20.8-17.42,8.71.21-.92,14.68-10.69,15.61-10.52Z"/>
    <path class="cls-1" d="M280.91,594.44c1.6-.44,2.35.94,3.27,1.81,1.8,5.58-10.7,20.85-13.79,13.07-1.05-2.64,9.61-14.63,10.52-14.88Z"/>
    <path class="cls-1" d="M294.7,500.08c1.74,1.68,5.04,5.12,7.26,5.81,4.47,1.39,17.89-1.67,17.06,2.54-6.75,5.27-26.61,3.5-24.32-8.35Z"/>
    <path class="cls-1" d="M351.31,592.98c8.13-2.55,18.36,15.35,12.34,19.6-4.44,3.13-3.01-5.81-3.99-8.35-2-5.15-5.89-6.92-8.35-11.25Z"/>
    <path class="cls-1" d="M287.44,596.61c6.65-2.1-2.69,28.47-9.07,15.61,3.22-1.28,8.21-15.33,9.07-15.61Z"/>
    <path class="cls-1" d="M320.83,601.69c8.15-.98,7.36,19.11,3.63,20.32-5.56,1.81-1.05-16.14-3.63-20.32Z"/>
    <path class="cls-1" d="M348.41,595.16c5.62-1.28,15.81,17.61,7.26,21.05-1.19-.27-1.57-9.46-2.54-11.98-.54-1.39-7.84-8.36-4.72-9.07Z"/>
    <path class="cls-1" d="M292.52,598.79c7.54.74.11,21.12-5.08,18.87-2.95-1.28,5.55-15.32,5.08-18.87Z"/>
    <path class="cls-1" d="M315.02,601.69c6.92.12,6.03,19.12,2.9,20.32-5.89,2.27-2.54-4.08-2.54-5.44,0-4.98.05-9.94-.36-14.88Z"/>
    <path class="cls-1" d="M304.13,600.97c4.87-4.06,4.48,23.26-3.63,19.6-2.81-1.27,1.4-6.44,1.81-8.35.38-1.73,1.38-10.89,1.81-11.25Z"/>
    <path class="cls-1" d="M333.17,599.52c6.72,1.34,8.91,19.54,4.36,21.05-5.48,1.81-1.48-4.98-1.81-8.35-.2-1.99-4.45-12.43-2.54-12.7Z"/>
    <path class="cls-1" d="M359.3,590.81c8.09-.93,16.65,18.43,9.44,18.87-3.21.2-1.85-5.92-2.54-7.62-1.46-3.61-4.5-6.77-7.26-9.44l.36-1.81Z"/>
    <path class="cls-1" d="M309.94,600.97c5.85,2.19,4.83,21.13-.73,21.05-4.46-.07-.06-8.58.36-11.25.22-1.42-.77-9.8.36-9.8Z"/>
    <path class="cls-1" d="M342.6,597.34c8.4-1.15,13.46,21.26,7.26,21.05-2.33-.08-2.12-10.59-3.27-14.15-.34-1.04-5.11-6.23-3.99-6.9Z"/>
    <path class="cls-1" d="M338.25,599.52c5-3.1,12.09,18.06,5.81,20.32-4.4.5-1.98-8.78-2.54-11.98-.19-1.08-4.08-7.84-3.27-8.35Z"/>
    <path class="cls-1" d="M327.36,600.97c6.54.5,7.87,18.82,3.63,20.32-5.01,1.77-1.49-6.56-1.81-9.8-.11-1.11-3.14-10.25-1.81-10.52Z"/>
    <path class="cls-1" d="M298.33,600.24c6.85-3.15.82,20.05-3.63,19.6-4.1-.42,1.18-7.71,1.81-9.8.59-1.95.52-9.2,1.81-9.8Z"/>
    <path class="cls-1" d="M363.65,588.63c7.71-1.72,17.59,18.45,10.16,17.42-.99-.14-4.09-16.13-10.89-15.97l.73-1.45Z"/>
    <path class="cls-1" d="M391.96,568.31c2.98,3.68-12.31,25.35-13.79,25.4-7.58.27,6.36-11.22,6.9-11.98,2.76-3.88,4.2-9.47,6.9-13.43Z"/>
    <path class="cls-1" d="M360.02,585.73c7.65-1.29,16.2,2.16,17.06,10.52-2.44-1.03-3.4-4.72-5.44-6.17-9.98-7.09-14.27,1.5-17.42.73-3.56-.87,5.2-4.98,5.81-5.08Z"/>
    <g>
      <path class="cls-1" d="M461.64,398.46c2.22.03,4.21-.36,6.17,1.09,1.4,17.36-1.04,38.79,18.51,46.82,14.54,5.97,59.47,5.12,73.31-2.9,18.82-10.92,9.22-38.79,13.43-43.91,1.7-2.07,15.84-.76,16.69,1.45,1.58,18.42-2.09,34.45-10.16,50.81,23.72,21.71,45.7,47.24,58.79,76.94,50.19,113.86-71.99,112.32-148.43,104.88-26.1-2.54-81.88-7.56-91.82-35.93-17.84-50.9,28.02-114.8,63.87-147.35-9.21-14.53-11.78-32.35-10.89-49.36.57-1.19,9.25-2.56,10.52-2.54Z"/>
      <path class="cls-4" d="M565.44,595.16c1.6.84-4.06,4.17-4.36,4.36-23.05,14.69-59.37,15.3-83.11,1.81.76-1.29,2.07-.64,3.27-.36,7.5,1.75,15.44,6.25,23.95,7.26,20.54,2.43,42.57-2.42,60.24-13.07Z"/>
      <path class="cls-4" d="M635.12,545.8c7.86,21.89,6.49,49.16-10.89,66.05,15.36-19.95,15.33-42.2,10.89-66.05Z"/>
      <path class="cls-4" d="M402.85,571.21c1.67,11.79,3.57,22.78,11.25,32.3,8.41,10.41,16.64,11.22,28.67,14.88-25.27.34-41.95-23.25-39.92-47.18Z"/>
      <path class="cls-4" d="M420.27,600.97c8.59,7.35,18.19,10.01,28.67,13.43-9.94-.66-23.26-4.55-28.67-13.43Z"/>
      <g>
        <path class="cls-4" d="M519.71,463.06c45.37-.21,82.99,34.72,77.3,81.66-.54,4.45-6.89,17.25-6.53,18.15.5,1.25,8.49,1.98,7.98,7.26-.14,1.44-7.12,9.28-8.35,9.8-5.56,2.34-8.15-3.85-10.16-3.63-1.07.12-12.82,12.36-15.97,14.52-49.64,34.01-129.89,3.73-124.48-61.33,3.26-39.13,43.19-66.24,80.21-66.41Z"/>
        <path class="cls-1" d="M515.35,465.24c52.17-3.3,97.37,45.66,72.58,95.81-9.17-1.97-14.05-14.5-23.95-12.34-13.79,3,10.02,23.09,14.15,26.49-31.79,38.44-97.35,37.5-125.57-4.36-32.09-47.59,11.19-102.35,62.79-105.61Z"/>
        <path class="cls-1" d="M567.61,550.89c9.72,5.55,17.77,13.39,27.94,17.78-.23,1.56-2.29,4.68-3.99,4.72-2.97.06-27.71-20.33-23.95-22.5Z"/>
        <path class="cls-1" d="M563.26,551.61l26.49,24.32-2.54,1.81c-.55.02-8.36-4.99-9.44-5.81-1.97-1.5-20.14-18.84-14.52-20.32Z"/>
        <g>
          <path class="cls-4" d="M566.16,502.25c18.01-2.85,16.63,21.31,2.18,21.78-12.71.41-15.91-19.6-2.18-21.78Z"/>
          <path class="cls-1" d="M569.06,503.71c8.19-.09,11.28,11.28,5.08,15.97-13.59,10.27-22.66-15.78-5.08-15.97Z"/>
        </g>
        <g>
          <path class="cls-4" d="M524.06,574.84c18.02-2.96,16.89,20.89,2.9,21.78-13.3.84-15.95-19.63-2.9-21.78Z"/>
          <path class="cls-1" d="M526.97,576.29c9.42-.31,11.38,12.79,4.36,16.69-14.24,7.92-20.19-16.17-4.36-16.69Z"/>
        </g>
        <g>
          <path class="cls-4" d="M518.26,470.32c16.59-2.61,16.89,20.34,2.9,21.78-13.64,1.4-16.72-19.6-2.9-21.78Z"/>
          <path class="cls-1" d="M517.53,472.49c14.93-3.23,14.69,15.97,4.36,17.42-12.38,1.73-14.12-15.31-4.36-17.42Z"/>
        </g>
        <g>
          <path class="cls-4" d="M467.45,500.08c14.83-.65,13.87,18.98,2.9,21.05-16.78,3.17-18.08-20.39-2.9-21.05Z"/>
          <path class="cls-1" d="M465.27,502.25c14.36-2.92,14.78,17.16,2.18,17.42-10.66.22-11.47-15.53-2.18-17.42Z"/>
        </g>
        <g>
          <path class="cls-4" d="M547.29,480.48c15.63-1.66,15.64,19,3.63,21.05-16.08,2.74-17.43-19.58-3.63-21.05Z"/>
          <path class="cls-1" d="M546.56,482.66c14.47-2.82,13.79,16.46,2.9,17.42-11.17.99-13.33-15.39-2.9-17.42Z"/>
        </g>
        <g>
          <path class="cls-4" d="M487.04,479.75c18.66-3.42,16.9,21.98,1.45,21.05-11.99-.72-13.07-18.92-1.45-21.05Z"/>
          <path class="cls-1" d="M488.5,481.21c12.62-1.61,13.24,15.59,2.9,17.42-12.44,2.2-14.28-15.97-2.9-17.42Z"/>
        </g>
        <g>
          <path class="cls-4" d="M471.08,554.51c15.97-1.8,16.16,19.47,2.9,21.05-15.05,1.79-16.1-19.56-2.9-21.05Z"/>
          <path class="cls-1" d="M469.62,556.69c13.74-3.38,15.83,14.52,5.08,16.69-13.3,2.69-13.93-14.52-5.08-16.69Z"/>
        </g>
        <g>
          <path class="cls-4" d="M494.3,571.93c16.61-2.44,16.39,19.46,3.63,21.05-15.44,1.92-16.33-19.18-3.63-21.05Z"/>
          <path class="cls-1" d="M496.48,573.39c8.51-.2,12.44,11.53,5.08,15.97-14.73,8.89-20.04-15.62-5.08-15.97Z"/>
        </g>
        <g>
          <path class="cls-4" d="M458.01,529.11c21.06-4.61,16.95,27.08-2.18,19.6-8.3-3.25-6.17-17.77,2.18-19.6Z"/>
          <path class="cls-1" d="M460.19,530.56c12.78-1.63,13.06,16.25,2.18,17.42-12.54,1.35-12.93-16.05-2.18-17.42Z"/>
        </g>
        <g>
          <path class="cls-4" d="M512.45,499.35c51.33-4.42,59.84,71.02,5.81,68.95-49.43-1.89-47.4-65.37-5.81-68.95Z"/>
          <path class="cls-1" d="M516.08,501.53c41.26-1.01,51.86,58.51,10.16,63.87-54.56,7.02-55.74-62.76-10.16-63.87Z"/>
          <path class="cls-4" d="M516.08,505.16c39.66-2.26,50.68,54.54,7.98,58.07-48.33,3.99-49.83-55.69-7.98-58.07Z"/>
          <path class="cls-1" d="M511.72,507.34c39.71-5.42,54.15,47.36,14.52,53.71-45.85,7.35-50.68-48.77-14.52-53.71Z"/>
        </g>
      </g>
    </g>
  </g>
  <g id="handleGroup">
    <g>
      <path class="cls-1" d="M514.63,362.89c43.41-.37,127.59,10,161.86,37.74,17.48,14.15,27.77,35.98,27.22,58.43-21.32,11.13-61.06,5.65-80.93-6.9-23.11-14.59-4.94-15.55-3.27-22.14,3.24-12.74-25.45-15.01-26.49-16.33-1.84-2.33,2.23-14.19-4.36-16.69-2.06-.78-14.83-1.17-16.69,0-3.55,2.22-.74,12.77-2.18,13.79-32.55-5.27-65.39-4.25-97.99,0-4.41-1.96,6.28-16.76-13.79-14.52-16.64,1.86-4.94,14.33-10.16,18.15-3.51,2.57-17.47,1.05-22.14,9.8s7.56,9.16,7.26,14.52c-.11,1.93-10.52,10.62-12.7,11.98-11.72,7.3-60.39,21.32-71.86,14.52-9.2-5.46-2.4-31.4,1.09-39.56,21.24-49.65,117.89-62.38,165.13-62.79Z"/>
      <g>
        <path class="cls-4" d="M506.64,372.33c27.26-.66,62.41,2.45,89.28,7.26,3.63.65,48.7,11.45,47.54,14.88-55.49-17.88-120.83-25.35-178.92-17.06-21.78,3.11-47.37,8.99-65.33,21.78,5.85-9.11,20.34-13.04,30.49-15.97,22.88-6.62,53.1-10.31,76.94-10.89Z"/>
        <path class="cls-4" d="M505.92,402.09c2.97-.25,40.31-.93,39.56,2.54l-48.27-.36c2.21-1.58,6.15-1.96,8.71-2.18Z"/>
        <path class="cls-4" d="M686.65,424.59c7.22,5.01,8.71,19.33,6.53,27.58l-6.53-27.58Z"/>
        <path class="cls-4" d="M357.85,428.22l-3.63,29.03c-1.68-9.13-2.83-21.46,3.63-29.03Z"/>
        <path class="cls-4" d="M601,404.27c8.42-.11,17.21,3.69,19.96,11.98-5.28-6.95-11.98-9.24-19.96-11.98Z"/>
        <path class="cls-4" d="M436.96,404.27c.95-.1,1.95.07,2.9,0-5.91,2.62-11.08,5.62-16.33,10.52,1.77-4.68,8.68-10.04,13.43-10.52Z"/>
        <path class="cls-4" d="M600.28,409.35c3.44-.75,14.53,3.7,17.06,6.9-4.02-2.83-14.75-3.88-17.78-5.44-.7-.36.51-1.4.73-1.45Z"/>
        <path class="cls-4" d="M440.59,409.35c.76.05,2.07.55,1.45,1.45l-16.33,6.17c2.46-2.94,11.3-7.86,14.88-7.62Z"/>
      </g>
    </g>
    <g>
      <path class="cls-1" d="M608.99,442.74c22.42,25.72,63.11,26.73,94.36,21.05-1.35,39.73-78.07,23.84-92.54,3.99-5.24-7.18-7.67-17.61-1.81-25.04Z"/>
      <path class="cls-4" d="M620.6,463.78l21.41,12.7c-7.29-1.15-17.77-6.59-21.41-12.7Z"/>
      <path class="cls-4" d="M616.24,467.41l22.14,12.7c-7.76-2.78-16.61-6.5-22.14-12.7Z"/>
    </g>
    <g>
      <path class="cls-1" d="M434.06,441.28c3.63-.52,3.61,13.57,3.27,15.61-4.5,26.67-91.27,49.99-92.54,8.35,14.72,7.18,39.66,1.23,55.16-3.63,12.23-3.84,25.79-10.22,34.11-20.32Z"/>
      <path class="cls-4" d="M358.57,479.75c9.27,3.68,17.56,3.06,27.22,1.81-7.8,3.41-20.51,4.55-27.22-1.81Z"/>
    </g>
  </g>
  <g id="rightRingTicks">
    <path class="cls-4" d="M725.12,425.32c1.48-.43,25.25-.64,23.59,1.81-2.91,1.27-25.08,1.25-25.4,0-.21-.81,1.39-1.69,1.81-1.81Z"/>
    <path class="cls-4" d="M722.94,391.2c1.45-.04,2.9.03,4.36,0,5.4,3.07-14.86,4.84-15.97,5.08-.7.15-4.97,4.3-4.72.36.14-2.17,14.15-5.39,16.33-5.44Z"/>
  </g>
  <g id="leftRingTicks">
    <path class="cls-4" d="M319.38,392.65c6.49.32,16.54.14,20.69,6.17l-18.51-3.27-2.18-2.9Z"/>
    <path class="cls-4" d="M312.84,423.14c3.84-.25,7.76.18,11.61,0,1.34-.19,1.22.81,1.09,1.81-.14,1.06-19.4.71-21.41,1.09-4.84-1.57,7.82-2.85,8.71-2.9Z"/>
  </g>
</svg>